{
	"asset":{
		"generator":"Khronos glTF Blender I/O v4.0.39",
		"version":"2.0"
	},
	"scene":0,
	"scenes":[
		{
			"name":"Scene",
			"nodes":[
				10
			]
		}
	],
	"nodes":[
		{
			"mesh":0,
			"name":"Cube"
		},
		{
			"name":"Bone.007_end",
			"rotation":[
				1.1920927533992653e-07,
				3.901215120877652e-19,
				2.2499312661442353e-22,
				1
			],
			"scale":[
				1,
				1.0000001192092896,
				1.0000001192092896
			],
			"translation":[
				-6.352747104407253e-22,
				0.5430092215538025,
				1.1920928955078125e-07
			]
		},
		{
			"children":[
				1
			],
			"name":"Bone.007",
			"rotation":[
				0.004589472897350788,
				2.0537418337143731e-13,
				-4.628041487097622e-15,
				0.9999894499778748
			],
			"scale":[
				1,
				0.9999998807907104,
				0.9999999403953552
			],
			"translation":[
				2.2411702349641946e-14,
				0.6589360237121582,
				5.960464477539063e-08
			]
		},
		{
			"children":[
				2
			],
			"name":"Bone.006",
			"rotation":[
				-0.010219213552772999,
				-1.1920319309410843e-07,
				-1.2182168607210997e-09,
				0.9999477863311768
			],
			"translation":[
				-2.094942871521538e-14,
				0.9696062207221985,
				-1.7881393432617188e-07
			]
		},
		{
			"children":[
				3
			],
			"name":"Bone.005",
			"rotation":[
				0.0061209537088871,
				1.1920698739231739e-07,
				7.296733217643236e-10,
				0.9999812841415405
			],
			"scale":[
				1,
				0.9999999403953552,
				0.9999999403953552
			],
			"translation":[
				-2.80579663777987e-21,
				1.2013425827026367,
				1.1920928955078125e-07
			]
		},
		{
			"children":[
				4
			],
			"name":"Bone.004",
			"rotation":[
				-0.00365787954069674,
				-1.6989315228081725e-13,
				-7.461885794511026e-17,
				0.9999933242797852
			],
			"translation":[
				1.4607855669448305e-14,
				1.118114709854126,
				1.1920928955078125e-07
			]
		},
		{
			"children":[
				5
			],
			"name":"Bone.003",
			"rotation":[
				-0.0007264094892889261,
				-1.1920885611971244e-07,
				-8.659608446981437e-11,
				0.9999997615814209
			],
			"scale":[
				1,
				0.9999999403953552,
				0.9999999403953552
			],
			"translation":[
				-4.295507702247077e-14,
				1.1179332733154297,
				5.960464477539063e-08
			]
		},
		{
			"children":[
				6
			],
			"name":"Bone.002",
			"rotation":[
				0.019359542056918144,
				1.1918671560806615e-07,
				2.3078310373847444e-09,
				0.9998126029968262
			],
			"translation":[
				6.617444900424222e-24,
				0.7617161273956299,
				-8.940696716308594e-08
			]
		},
		{
			"children":[
				7
			],
			"name":"Bone.001",
			"rotation":[
				-0.0828554779291153,
				5.933934310615324e-17,
				6.05415078514337e-17,
				0.996561586856842
			],
			"translation":[
				-3.308722450212111e-24,
				2.828994035720825,
				-5.960464477539063e-08
			]
		},
		{
			"children":[
				8
			],
			"name":"Bone",
			"rotation":[
				0.6494011282920837,
				-1.6662258902222097e-18,
				-1.904837635723645e-17,
				0.7604460716247559
			],
			"scale":[
				1,
				1,
				1.0000011920928955
			],
			"translation":[
				0,
				-1.2826627492904663,
				-2.0610532760620117
			]
		},
		{
			"children":[
				0,
				9
			],
			"name":"Armature",
			"translation":[
				0,
				1.6934868097305298,
				0
			]
		}
	],
	"materials":[
		{
			"alphaMode":"BLEND",
			"doubleSided":true,
			"name":"Material.001",
			"pbrMetallicRoughness":{
				"baseColorTexture":{
					"index":0
				},
				"metallicFactor":0
			}
		}
	],
	"meshes":[
		{
			"name":"Cube.001",
			"primitives":[
				{
					"attributes":{
						"POSITION":0,
						"NORMAL":1,
						"TEXCOORD_0":2
					},
					"indices":3,
					"material":0
				}
			]
		}
	],
	"textures":[
		{
			"sampler":0,
			"source":0
		}
	],
	"images":[
		{
			"mimeType":"image/png",
			"name":"kleierbala",
			"uri":"kleierbala.png"
		}
	],
	"skins":[
		{
			"inverseBindMatrices":4,
			"joints":[
				9,
				8,
				7,
				6,
				5,
				4,
				3,
				2,
				1
			],
			"name":"Armature"
		}
	],
	"accessors":[
		{
			"bufferView":0,
			"componentType":5126,
			"count":404,
			"max":[
				2.501614570617676,
				2.598613739013672,
				1.2924883365631104
			],
			"min":[
				-1.028880000114441,
				-1.622917890548706,
				-1.551377296447754
			],
			"type":"VEC3"
		},
		{
			"bufferView":1,
			"componentType":5126,
			"count":404,
			"type":"VEC3"
		},
		{
			"bufferView":2,
			"componentType":5126,
			"count":404,
			"type":"VEC2"
		},
		{
			"bufferView":3,
			"componentType":5123,
			"count":1464,
			"type":"SCALAR"
		},
		{
			"bufferView":4,
			"componentType":5126,
			"count":9,
			"type":"MAT4"
		}
	],
	"bufferViews":[
		{
			"buffer":0,
			"byteLength":4848,
			"byteOffset":0,
			"target":34962
		},
		{
			"buffer":0,
			"byteLength":4848,
			"byteOffset":4848,
			"target":34962
		},
		{
			"buffer":0,
			"byteLength":3232,
			"byteOffset":9696,
			"target":34962
		},
		{
			"buffer":0,
			"byteLength":2928,
			"byteOffset":12928,
			"target":34963
		},
		{
			"buffer":0,
			"byteLength":576,
			"byteOffset":15856
		}
	],
	"samplers":[
		{
			"magFilter":9729,
			"minFilter":9987
		}
	],
	"buffers":[
		{
			"byteLength":16432,
			"uri":"kleierbal.bin"
		}
	]
}
